<svg width="127" height="24" viewBox="0 0 127 24" fill="none" xmlns="http://www.w3.org/2000/svg">
<g clip-path="url(#clip0_105_151)">
<path fill-rule="evenodd" clip-rule="evenodd" d="M2.64899 0L1.03699 4.119V20.955H6.76799V24H9.99199L13.037 20.955H17.694L23.963 14.686V0H2.64899V0ZM21.813 13.612L18.231 17.194H12.5L9.45499 20.239V17.194H4.61899V2.149H21.813V13.612V13.612ZM18.231 6.269V12.531H16.082V6.269H18.231V6.269ZM12.5 6.269V12.531H10.351V6.269H12.5V6.269Z" fill="black"/>
</g>
<g clip-path="url(#clip1_105_151)">
<path d="M61.0565 20.4431C68.9241 20.4431 73.2262 13.9252 73.2262 8.27335C73.2262 8.08822 73.2225 7.90392 73.2142 7.72046C74.0493 7.1167 74.7753 6.36326 75.3477 5.50557C74.5814 5.84623 73.7566 6.07556 72.8914 6.17896C73.7746 5.64942 74.4525 4.81175 74.7723 3.81314C73.9459 4.30306 73.0307 4.65915 72.0563 4.85136C71.2757 4.01995 70.1645 3.5 68.9341 3.5C66.572 3.5 64.6565 5.41551 64.6565 7.77675C64.6565 8.1124 64.694 8.43888 64.7674 8.75201C61.2124 8.57314 58.0602 6.87111 55.9508 4.28305C55.5835 4.91516 55.3717 5.64942 55.3717 6.43289C55.3717 7.91685 56.1268 9.22693 57.2751 9.9933C56.5733 9.97162 55.9141 9.77898 55.3379 9.45834C55.3373 9.47629 55.3373 9.49378 55.3373 9.51296C55.3373 11.5844 56.8116 13.314 58.7688 13.7059C58.4094 13.8039 58.0312 13.8564 57.6409 13.8564C57.3658 13.8564 57.0976 13.8293 56.837 13.7793C57.3816 15.4788 58.9606 16.7155 60.8328 16.7501C59.3688 17.8976 57.5246 18.581 55.5203 18.581C55.1755 18.581 54.8348 18.5614 54.5 18.5218C56.393 19.7351 58.6408 20.4431 61.0567 20.4431" fill="black"/>
</g>
<g clip-path="url(#clip2_105_151)">
<path fill-rule="evenodd" clip-rule="evenodd" d="M111.927 2.06331C112.993 2.01579 113.333 2.00391 116.042 2.00391C118.751 2.00391 119.092 2.01579 120.161 2.05935C121.226 2.10688 121.951 2.27717 122.585 2.52272C123.238 2.78014 123.797 3.12074 124.351 3.67519C124.906 4.22965 125.25 4.7841 125.503 5.44153C125.749 6.07915 125.919 6.80391 125.967 7.86529C126.014 8.93064 126.026 9.26727 126.026 11.9801C126.026 14.693 126.014 15.0296 125.967 16.095C125.919 17.1603 125.749 17.8851 125.503 18.5188C125.246 19.1722 124.906 19.7306 124.351 20.2851C123.797 20.8396 123.242 21.1841 122.585 21.4376C121.947 21.6831 121.222 21.8534 120.161 21.9009C119.096 21.9485 118.759 21.9603 116.046 21.9603C113.333 21.9603 112.997 21.9485 111.931 21.9009C110.866 21.8534 110.141 21.6831 109.508 21.4376C108.854 21.1801 108.296 20.8396 107.741 20.2851C107.187 19.7306 106.842 19.1762 106.589 18.5188C106.343 17.8811 106.173 17.1564 106.125 16.095C106.078 15.0296 106.066 14.6891 106.066 11.9801C106.066 9.27123 106.078 8.93064 106.125 7.86925C106.173 6.80391 106.343 6.07915 106.589 5.44549C106.846 4.79203 107.187 4.23361 107.741 3.67915C108.296 3.1247 108.85 2.78014 109.508 2.52668C110.141 2.28113 110.866 2.11084 111.927 2.06331ZM120.074 3.86133C119.02 3.81381 118.707 3.80193 116.042 3.80193C113.377 3.80193 113.064 3.80985 112.01 3.86133C111.036 3.9049 110.509 4.07123 110.157 4.20589C109.69 4.3841 109.357 4.60193 109.008 4.95044C108.66 5.29896 108.446 5.63163 108.264 6.09896C108.125 6.45143 107.963 6.97816 107.919 7.95242C107.872 9.00589 107.86 9.31876 107.86 11.9841C107.86 14.6495 107.872 14.9623 107.919 16.0158C107.963 16.99 108.129 17.5168 108.264 17.8693C108.442 18.3366 108.66 18.6693 109.008 19.0178C109.357 19.3663 109.69 19.5801 110.157 19.7623C110.509 19.9009 111.036 20.0633 112.01 20.1069C113.064 20.1544 113.377 20.1663 116.042 20.1663C118.707 20.1663 119.02 20.1544 120.074 20.1069C121.048 20.0633 121.575 19.897 121.927 19.7623C122.395 19.5841 122.727 19.3663 123.076 19.0178C123.424 18.6693 123.638 18.3366 123.82 17.8693C123.959 17.5168 124.121 16.99 124.165 16.0158C124.212 14.9623 124.224 14.6495 124.224 11.9841C124.224 9.31876 124.212 9.00589 124.165 7.95242C124.121 6.97816 123.955 6.45143 123.82 6.09896C123.642 5.63163 123.424 5.29896 123.076 4.95044C122.727 4.60193 122.395 4.38806 121.927 4.20589C121.575 4.06727 121.048 3.9049 120.074 3.86133Z" fill="black"/>
<path fill-rule="evenodd" clip-rule="evenodd" d="M110.917 11.9802C110.917 9.14854 113.214 6.85547 116.042 6.85547C118.87 6.85547 121.167 9.1525 121.167 11.9802C121.167 14.8079 118.87 17.105 116.042 17.105C113.214 17.105 110.917 14.8119 110.917 11.9802ZM112.715 11.9802C112.715 13.8178 114.205 15.307 116.042 15.307C117.88 15.307 119.369 13.8178 119.369 11.9802C119.369 10.1426 117.88 8.65349 116.042 8.65349C114.205 8.65349 112.715 10.1426 112.715 11.9802Z" fill="black"/>
<path d="M121.369 7.8496C122.029 7.8496 122.565 7.31411 122.565 6.65356C122.565 5.993 122.029 5.45752 121.369 5.45752C120.708 5.45752 120.173 5.993 120.173 6.65356C120.173 7.31411 120.708 7.8496 121.369 7.8496Z" fill="black"/>
</g>
<defs>
<clipPath id="clip0_105_151">
<rect width="24" height="24" fill="white" transform="translate(0.5)"/>
</clipPath>
<clipPath id="clip1_105_151">
<rect width="21" height="17" fill="white" transform="translate(54.5 3.5)"/>
</clipPath>
<clipPath id="clip2_105_151">
<rect width="21" height="21" fill="white" transform="translate(105.5 1.5)"/>
</clipPath>
</defs>
</svg>
